<mxfile host="app.diagrams.net" modified="2021-10-13T19:25:27.306Z" agent="5.0 (Windows NT 10.0; Win64; x64) AppleWebKit/537.36 (KHTML, like Gecko) Chrome/93.0.4577.82 Safari/537.36 OPR/79.0.4143.73" etag="g-pnAqwnCkZQM5XaFnfq" version="15.5.2" type="github">
  <diagram id="C5RBs43oDa-KdzZeNtuy" name="Page-1">
    <mxGraphModel dx="659" dy="752" grid="1" gridSize="10" guides="1" tooltips="1" connect="1" arrows="1" fold="1" page="1" pageScale="1" pageWidth="827" pageHeight="1169" math="0" shadow="0">
      <root>
        <mxCell id="WIyWlLk6GJQsqaUBKTNV-0" />
        <mxCell id="WIyWlLk6GJQsqaUBKTNV-1" parent="WIyWlLk6GJQsqaUBKTNV-0" />
        <mxCell id="R63640BgNY8WNtFjRnq3-1" style="edgeStyle=orthogonalEdgeStyle;rounded=0;orthogonalLoop=1;jettySize=auto;html=1;entryX=0.5;entryY=0;entryDx=0;entryDy=0;" parent="WIyWlLk6GJQsqaUBKTNV-1" source="R63640BgNY8WNtFjRnq3-0" target="R63640BgNY8WNtFjRnq3-2" edge="1">
          <mxGeometry relative="1" as="geometry">
            <mxPoint x="400" y="170" as="targetPoint" />
          </mxGeometry>
        </mxCell>
        <mxCell id="R63640BgNY8WNtFjRnq3-0" value="START" style="ellipse;whiteSpace=wrap;html=1;" parent="WIyWlLk6GJQsqaUBKTNV-1" vertex="1">
          <mxGeometry x="340" y="20" width="120" height="80" as="geometry" />
        </mxCell>
        <mxCell id="R63640BgNY8WNtFjRnq3-5" style="edgeStyle=orthogonalEdgeStyle;rounded=0;orthogonalLoop=1;jettySize=auto;html=1;" parent="WIyWlLk6GJQsqaUBKTNV-1" source="R63640BgNY8WNtFjRnq3-2" target="R63640BgNY8WNtFjRnq3-4" edge="1">
          <mxGeometry relative="1" as="geometry" />
        </mxCell>
        <mxCell id="R63640BgNY8WNtFjRnq3-2" value="Wczytaj (n)" style="shape=parallelogram;perimeter=parallelogramPerimeter;whiteSpace=wrap;html=1;fixedSize=1;" parent="WIyWlLk6GJQsqaUBKTNV-1" vertex="1">
          <mxGeometry x="320" y="190" width="120" height="60" as="geometry" />
        </mxCell>
        <mxCell id="R63640BgNY8WNtFjRnq3-4" value="x = 1" style="rounded=0;whiteSpace=wrap;html=1;" parent="WIyWlLk6GJQsqaUBKTNV-1" vertex="1">
          <mxGeometry x="330" y="300" width="120" height="60" as="geometry" />
        </mxCell>
        <mxCell id="R63640BgNY8WNtFjRnq3-7" style="edgeStyle=orthogonalEdgeStyle;rounded=0;orthogonalLoop=1;jettySize=auto;html=1;entryX=0.5;entryY=1;entryDx=0;entryDy=0;" parent="WIyWlLk6GJQsqaUBKTNV-1" source="R63640BgNY8WNtFjRnq3-6" target="R63640BgNY8WNtFjRnq3-4" edge="1">
          <mxGeometry relative="1" as="geometry" />
        </mxCell>
        <mxCell id="R63640BgNY8WNtFjRnq3-8" value="TAK" style="edgeStyle=orthogonalEdgeStyle;rounded=0;orthogonalLoop=1;jettySize=auto;html=1;entryX=0.5;entryY=0;entryDx=0;entryDy=0;" parent="WIyWlLk6GJQsqaUBKTNV-1" source="R63640BgNY8WNtFjRnq3-6" target="R63640BgNY8WNtFjRnq3-9" edge="1">
          <mxGeometry x="-0.5994" relative="1" as="geometry">
            <mxPoint x="230" y="690" as="targetPoint" />
            <mxPoint as="offset" />
          </mxGeometry>
        </mxCell>
        <mxCell id="R63640BgNY8WNtFjRnq3-12" value="NIE" style="edgeStyle=orthogonalEdgeStyle;rounded=0;orthogonalLoop=1;jettySize=auto;html=1;entryX=0.5;entryY=0;entryDx=0;entryDy=0;" parent="WIyWlLk6GJQsqaUBKTNV-1" source="R63640BgNY8WNtFjRnq3-6" target="R63640BgNY8WNtFjRnq3-13" edge="1">
          <mxGeometry x="-0.5455" relative="1" as="geometry">
            <mxPoint x="700" y="800" as="targetPoint" />
            <mxPoint as="offset" />
          </mxGeometry>
        </mxCell>
        <mxCell id="R63640BgNY8WNtFjRnq3-6" value="&amp;nbsp;n &amp;lt;= x" style="rhombus;whiteSpace=wrap;html=1;" parent="WIyWlLk6GJQsqaUBKTNV-1" vertex="1">
          <mxGeometry x="350" y="410" width="80" height="80" as="geometry" />
        </mxCell>
        <mxCell id="R63640BgNY8WNtFjRnq3-10" style="edgeStyle=orthogonalEdgeStyle;rounded=0;orthogonalLoop=1;jettySize=auto;html=1;entryX=0.5;entryY=0;entryDx=0;entryDy=0;" parent="WIyWlLk6GJQsqaUBKTNV-1" source="R63640BgNY8WNtFjRnq3-9" target="R63640BgNY8WNtFjRnq3-11" edge="1">
          <mxGeometry relative="1" as="geometry">
            <mxPoint x="300" y="860" as="targetPoint" />
            <Array as="points">
              <mxPoint x="201" y="800" />
              <mxPoint x="370" y="800" />
            </Array>
          </mxGeometry>
        </mxCell>
        <mxCell id="R63640BgNY8WNtFjRnq3-9" value="Wypisz&amp;nbsp;&lt;br&gt;(&quot;Podana liczba musi być większa od 1&quot;)" style="shape=parallelogram;perimeter=parallelogramPerimeter;whiteSpace=wrap;html=1;fixedSize=1;" parent="WIyWlLk6GJQsqaUBKTNV-1" vertex="1">
          <mxGeometry x="71" y="650" width="259" height="50" as="geometry" />
        </mxCell>
        <mxCell id="R63640BgNY8WNtFjRnq3-11" value="STOP" style="ellipse;whiteSpace=wrap;html=1;" parent="WIyWlLk6GJQsqaUBKTNV-1" vertex="1">
          <mxGeometry x="310" y="930" width="120" height="80" as="geometry" />
        </mxCell>
        <mxCell id="R63640BgNY8WNtFjRnq3-18" style="edgeStyle=orthogonalEdgeStyle;rounded=0;orthogonalLoop=1;jettySize=auto;html=1;entryX=0;entryY=0.5;entryDx=0;entryDy=0;" parent="WIyWlLk6GJQsqaUBKTNV-1" source="R63640BgNY8WNtFjRnq3-13" target="R63640BgNY8WNtFjRnq3-17" edge="1">
          <mxGeometry relative="1" as="geometry" />
        </mxCell>
        <mxCell id="R63640BgNY8WNtFjRnq3-13" value="Wypisz (x)" style="shape=parallelogram;perimeter=parallelogramPerimeter;whiteSpace=wrap;html=1;fixedSize=1;" parent="WIyWlLk6GJQsqaUBKTNV-1" vertex="1">
          <mxGeometry x="460" y="580" width="120" height="60" as="geometry" />
        </mxCell>
        <mxCell id="NO9-HYu_F5LjfvTdGSDU-0" style="edgeStyle=orthogonalEdgeStyle;rounded=0;orthogonalLoop=1;jettySize=auto;html=1;" edge="1" parent="WIyWlLk6GJQsqaUBKTNV-1" source="R63640BgNY8WNtFjRnq3-15">
          <mxGeometry relative="1" as="geometry">
            <mxPoint x="520" y="560" as="targetPoint" />
          </mxGeometry>
        </mxCell>
        <mxCell id="R63640BgNY8WNtFjRnq3-15" value="x=x+1" style="rounded=0;whiteSpace=wrap;html=1;" parent="WIyWlLk6GJQsqaUBKTNV-1" vertex="1">
          <mxGeometry x="670" y="530" width="120" height="60" as="geometry" />
        </mxCell>
        <mxCell id="R63640BgNY8WNtFjRnq3-19" value="NIE" style="edgeStyle=orthogonalEdgeStyle;rounded=0;orthogonalLoop=1;jettySize=auto;html=1;entryX=0.5;entryY=1;entryDx=0;entryDy=0;" parent="WIyWlLk6GJQsqaUBKTNV-1" source="R63640BgNY8WNtFjRnq3-17" target="R63640BgNY8WNtFjRnq3-15" edge="1">
          <mxGeometry x="-0.8537" relative="1" as="geometry">
            <mxPoint as="offset" />
          </mxGeometry>
        </mxCell>
        <mxCell id="R63640BgNY8WNtFjRnq3-21" value="TAK" style="edgeStyle=orthogonalEdgeStyle;rounded=0;orthogonalLoop=1;jettySize=auto;html=1;" parent="WIyWlLk6GJQsqaUBKTNV-1" source="R63640BgNY8WNtFjRnq3-17" target="R63640BgNY8WNtFjRnq3-11" edge="1">
          <mxGeometry x="-0.7037" relative="1" as="geometry">
            <mxPoint as="offset" />
            <Array as="points">
              <mxPoint x="370" y="800" />
            </Array>
          </mxGeometry>
        </mxCell>
        <mxCell id="R63640BgNY8WNtFjRnq3-17" value="n != x" style="rhombus;whiteSpace=wrap;html=1;direction=south;" parent="WIyWlLk6GJQsqaUBKTNV-1" vertex="1">
          <mxGeometry x="510" y="760" width="80" height="80" as="geometry" />
        </mxCell>
      </root>
    </mxGraphModel>
  </diagram>
</mxfile>
